<?xml version="1.0" encoding="UTF-8"?><svg id="b" xmlns="http://www.w3.org/2000/svg" viewBox="0 0 154.65 54.13"><g id="c"><g id="d"><path d="M41.82,1.71h6.2v41.06c-.94-.41-1.97-.64-3.06-.64s-2.18.24-3.14.68V1.71Z" style="fill:#2d2e87; fill-rule:evenodd;"/><rect x="31.36" y="1.71" width="6.2" height="47.95" style="fill:#2d2e87;"/><rect x="20.91" y="1.71" width="6.2" height="47.95" style="fill:#2d2e87;"/><rect x="10.45" y="1.71" width="6.2" height="47.95" style="fill:#2d2e87;"/><rect y="1.71" width="6.2" height="47.95" style="fill:#2d2e87;"/><path d="M40.56,49.77c0-2.41,1.95-4.36,4.36-4.36s4.36,1.95,4.36,4.36-1.95,4.36-4.36,4.36-4.36-1.95-4.36-4.36" style="fill:#2d2e87; fill-rule:evenodd;"/><path d="M58.5,1.73h1.13v5.81c0,.85.22,1.47.64,1.85.43.38.99.57,1.69.57s1.25-.19,1.68-.57c.43-.38.64-.99.64-1.85V1.73h1.13v5.81c0,.76-.14,1.4-.42,1.92-.28.51-.68.9-1.2,1.16-.52.26-1.12.39-1.82.39s-1.31-.13-1.83-.39c-.52-.26-.92-.64-1.2-1.16-.29-.51-.43-1.15-.43-1.92V1.73Z" style="fill:#2d2e87;"/><polygon points="68.14 1.73 69.49 1.73 74.11 9.21 74 9.21 74 1.73 75.13 1.73 75.13 10.82 73.87 10.82 69.1 3.09 69.27 3.09 69.27 10.82 68.14 10.82 68.14 1.73" style="fill:#2d2e87;"/><rect x="78.06" y="1.73" width="1.13" height="9.09" style="fill:#2d2e87;"/><polygon points="84.65 9.62 87.34 1.73 88.54 1.73 85.3 10.82 84.12 10.82 80.91 1.73 82.11 1.73 84.79 9.62 84.65 9.62" style="fill:#2d2e87;"/><polygon points="90.24 10.82 90.24 1.73 95.84 1.73 95.84 2.7 91.37 2.7 91.37 5.75 95.58 5.75 95.58 6.72 91.37 6.72 91.37 9.84 95.84 9.84 95.84 10.82 90.24 10.82" style="fill:#2d2e87;"/><path d="M98.39,10.82V1.73h3.17c1.04,0,1.82.25,2.36.74.53.49.8,1.14.8,1.95s-.27,1.44-.8,1.94c-.53.5-1.32.74-2.36.74h-2.04v3.72h-1.13ZM99.52,6.3h1.95c.68,0,1.2-.17,1.55-.5.36-.34.53-.77.53-1.31s-.17-.99-.51-1.31c-.34-.32-.84-.49-1.49-.49h-2.04v3.61ZM103.49,10.82l-2.61-4.13h1.23l2.84,4.13h-1.46Z" style="fill:#2d2e87;"/><path d="M110.17,10.99c-.61,0-1.17-.11-1.67-.33-.51-.22-.91-.54-1.22-.97-.31-.43-.47-.96-.48-1.59h1.1c0,.42.1.77.31,1.05.21.27.48.47.83.61.34.13.72.2,1.12.2.44,0,.82-.07,1.14-.21.32-.14.57-.32.75-.55.18-.23.26-.48.26-.76,0-.39-.12-.7-.35-.94-.24-.24-.59-.43-1.05-.58l-1.61-.57c-.75-.27-1.32-.58-1.71-.93-.39-.35-.58-.83-.58-1.46,0-.7.27-1.28.81-1.72.54-.44,1.31-.67,2.31-.67.93,0,1.65.21,2.17.64.52.43.82,1,.9,1.72h-1.11c-.07-.42-.27-.75-.59-.98-.32-.23-.78-.35-1.36-.35s-1.06.13-1.4.4c-.33.27-.5.6-.5,1.01,0,.33.1.6.31.79.21.2.54.37.99.53l1.88.65c.65.22,1.17.52,1.55.91.38.39.57.9.57,1.52,0,.48-.13.92-.39,1.31-.26.39-.64.7-1.14.93-.5.23-1.12.35-1.85.35" style="fill:#2d2e87;"/><rect x="116.01" y="1.73" width="1.13" height="9.09" style="fill:#2d2e87;"/><polygon points="118.69 2.7 118.69 1.73 125.77 1.73 125.77 2.7 122.53 2.7 122.79 2.44 122.79 10.82 121.66 10.82 121.66 2.44 121.91 2.7 118.69 2.7" style="fill:#2d2e87;"/><path d="M126.23,10.82l3.13-9.09h1.38l3.05,9.09h-1.19l-.77-2.33h-3.62l-.8,2.33h-1.19ZM128.36,1.23c-.17,0-.32-.06-.43-.17-.11-.12-.17-.26-.17-.42,0-.18.06-.33.17-.45.11-.12.25-.18.43-.18s.32.06.43.18c.12.12.18.27.18.45,0,.16-.06.3-.18.42-.12.12-.26.17-.43.17M128.5,7.61h3.04l-1.52-4.5-1.52,4.5ZM131.2,1.23c-.16,0-.31-.06-.42-.17-.12-.12-.18-.26-.18-.43s.06-.32.18-.44c.12-.12.26-.18.42-.18s.32.06.43.18c.12.12.18.27.18.44s-.06.31-.18.43c-.12.12-.26.17-.43.17" style="fill:#2d2e87;"/><polygon points="134.25 2.7 134.25 1.73 141.33 1.73 141.33 2.7 138.1 2.7 138.35 2.44 138.35 10.82 137.22 10.82 137.22 2.44 137.47 2.7 134.25 2.7" style="fill:#2d2e87;"/><path d="M145.78,10.99c-.61,0-1.17-.11-1.67-.33-.51-.22-.91-.54-1.22-.97-.31-.43-.47-.96-.48-1.59h1.1c0,.42.1.77.31,1.05.21.27.48.47.83.61.34.13.72.2,1.12.2.44,0,.82-.07,1.14-.21.32-.14.57-.32.75-.55.18-.23.26-.48.26-.76,0-.39-.12-.7-.35-.94-.24-.24-.59-.43-1.05-.58l-1.61-.57c-.75-.27-1.32-.58-1.71-.93-.39-.35-.58-.83-.58-1.46,0-.7.27-1.28.81-1.72.54-.44,1.31-.67,2.31-.67.93,0,1.65.21,2.17.64.52.43.82,1,.9,1.72h-1.11c-.07-.42-.27-.75-.59-.98-.32-.23-.78-.35-1.36-.35s-1.06.13-1.4.4c-.33.27-.5.6-.5,1.01,0,.33.1.6.31.79.21.2.54.37.99.53l1.88.65c.65.22,1.17.52,1.55.91.38.39.57.9.57,1.52,0,.48-.13.92-.39,1.31-.26.39-.64.7-1.14.93-.5.23-1.12.35-1.85.35" style="fill:#2d2e87;"/><rect x="150.71" y="6.11" width="3.94" height=".98" style="fill:#2d2e87;"/><path d="M58.58,24.25v-9.09h3.4c.67,0,1.22.11,1.66.33.44.22.77.51.98.87.22.36.33.75.33,1.18,0,.52-.14.97-.43,1.36-.29.38-.72.65-1.29.79.37.06.7.19.98.39.28.21.5.46.66.75.16.3.24.61.24.95,0,.31-.05.61-.16.91-.1.29-.28.56-.52.8-.24.24-.56.42-.96.56-.4.14-.9.21-1.49.21h-3.4ZM59.71,16.13v3.1h2.23c.56,0,1.01-.14,1.35-.42.33-.28.5-.67.5-1.18,0-.47-.16-.84-.49-1.11-.33-.27-.78-.4-1.35-.4h-2.24ZM59.71,23.26h2.26c.69,0,1.19-.14,1.49-.43.3-.29.45-.66.45-1.11s-.16-.83-.49-1.1c-.33-.28-.81-.42-1.45-.42h-2.26v3.07Z" style="fill:#2d2e87;"/><rect x="67.58" y="15.16" width="1.13" height="9.09" style="fill:#2d2e87;"/><path d="M71.63,24.25v-9.09h3.4c.67,0,1.22.11,1.66.33.44.22.77.51.98.87.22.36.33.75.33,1.18,0,.52-.14.97-.43,1.36-.29.38-.72.65-1.29.79.37.06.7.19.98.39.28.21.5.46.66.75.16.3.24.61.24.95,0,.31-.05.61-.16.91-.1.29-.28.56-.52.8-.24.24-.56.42-.96.56-.4.14-.9.21-1.49.21h-3.4ZM72.76,16.13v3.1h2.23c.56,0,1.01-.14,1.35-.42.33-.28.5-.67.5-1.18,0-.47-.16-.84-.49-1.11-.33-.27-.78-.4-1.35-.4h-2.24ZM72.76,23.26h2.26c.69,0,1.19-.14,1.49-.43.3-.29.45-.66.45-1.11s-.16-.83-.49-1.1c-.33-.28-.81-.42-1.45-.42h-2.26v3.07Z" style="fill:#2d2e87;"/><polygon points="81.76 15.16 81.76 23.26 85.82 23.26 85.82 24.25 80.63 24.25 80.63 15.16 81.76 15.16" style="fill:#2d2e87;"/><rect x="87.4" y="15.16" width="1.13" height="9.09" style="fill:#2d2e87;"/><path d="M94.67,24.42c-.75,0-1.43-.17-2.02-.52-.59-.35-1.06-.87-1.4-1.57-.34-.7-.51-1.57-.51-2.62s.17-1.94.51-2.64c.34-.7.81-1.22,1.4-1.56.59-.35,1.27-.52,2.02-.52s1.43.17,2.02.52c.59.35,1.06.87,1.4,1.57.34.7.51,1.58.51,2.63s-.17,1.93-.51,2.63c-.34.7-.81,1.22-1.4,1.56-.59.34-1.27.51-2.02.51M94.67,23.38c.85,0,1.53-.31,2.02-.93.49-.62.74-1.54.74-2.74s-.25-2.09-.74-2.73c-.49-.64-1.17-.96-2.02-.96s-1.52.32-2.02.96c-.5.64-.75,1.56-.75,2.74s.25,2.11.75,2.73c.5.62,1.17.93,2.02.93" style="fill:#2d2e87;"/><polygon points="99.42 16.13 99.42 15.16 106.5 15.16 106.5 16.13 103.27 16.13 103.52 15.87 103.52 24.25 102.39 24.25 102.39 15.87 102.65 16.13 99.42 16.13" style="fill:#2d2e87;"/><polygon points="108.05 15.16 109.17 15.16 109.17 19.17 113.68 19.17 113.68 15.16 114.79 15.16 114.79 24.25 113.68 24.25 113.68 20.14 109.17 20.14 109.17 24.25 108.05 24.25 108.05 15.16" style="fill:#2d2e87;"/><polygon points="117.71 24.25 117.71 15.16 123.31 15.16 123.31 16.13 118.84 16.13 118.84 19.18 123.05 19.18 123.05 20.15 118.84 20.15 118.84 23.26 123.31 23.26 123.31 24.25 117.71 24.25" style="fill:#2d2e87;"/><path d="M125.86,15.16h1.14v9.09h-1.14v-9.09ZM131.09,15.16h1.56l-5.81,5.98v-1.59l4.24-4.39ZM128.48,18.99l4.42,5.26h-1.48l-3.75-4.52.81-.74Z" style="fill:#2d2e87;"/><path d="M58.57,37.65v-9.09h2.92c1,0,1.76.25,2.29.76.53.5.79,1.19.79,2.05s-.26,1.53-.79,2.03c-.53.5-1.29.75-2.29.75h-1.78v3.5h-1.14ZM59.71,33.17h1.78c.63,0,1.11-.16,1.44-.48.33-.32.49-.76.49-1.31s-.16-1.01-.49-1.34c-.33-.33-.8-.5-1.44-.5h-1.78v3.63Z" style="fill:#2d2e87;"/><path d="M64.96,37.65l3.13-9.09h1.38l3.05,9.09h-1.19l-.77-2.33h-3.62l-.8,2.33h-1.19ZM67.24,34.44h3.04l-1.52-4.5-1.52,4.5Z" style="fill:#2d2e87;"/><path d="M74.37,28.56h2.66c.92,0,1.71.19,2.39.56.68.37,1.2.9,1.57,1.58.37.68.56,1.48.56,2.4s-.19,1.71-.56,2.39c-.37.68-.9,1.21-1.57,1.59-.68.38-1.47.57-2.39.57h-2.66v-9.09ZM75.5,29.56v7.11h1.53c.69,0,1.28-.15,1.77-.46.49-.31.88-.73,1.14-1.27.27-.54.4-1.15.4-1.83s-.13-1.29-.4-1.83c-.27-.53-.65-.95-1.14-1.26-.49-.31-1.08-.46-1.77-.46h-1.53Z" style="fill:#2d2e87;"/><polygon points="83.91 37.65 83.91 28.56 89.51 28.56 89.51 29.53 85.04 29.53 85.04 32.59 89.25 32.59 89.25 33.56 85.04 33.56 85.04 36.67 89.51 36.67 89.51 37.65 83.91 37.65" style="fill:#2d2e87;"/><path d="M92.06,37.65v-9.09h3.17c1.04,0,1.82.25,2.36.74.53.49.8,1.14.8,1.95s-.27,1.44-.8,1.94c-.53.5-1.32.74-2.36.74h-2.04v3.72h-1.13ZM93.19,33.14h1.95c.68,0,1.2-.17,1.55-.5.36-.34.53-.77.53-1.31s-.17-.99-.51-1.31c-.34-.32-.84-.49-1.49-.49h-2.04v3.61ZM97.15,37.65l-2.61-4.13h1.23l2.84,4.13h-1.46Z" style="fill:#2d2e87;"/><path d="M100.93,37.65v-9.09h3.4c.67,0,1.22.11,1.66.33.44.22.77.51.98.87.22.36.33.75.33,1.18,0,.52-.14.97-.43,1.36-.29.38-.72.65-1.29.79.37.06.7.19.98.39.28.21.5.46.66.75.16.3.24.61.24.95,0,.31-.05.61-.16.91-.1.29-.28.56-.52.8-.24.24-.56.42-.96.56-.4.14-.9.21-1.49.21h-3.4ZM102.05,29.53v3.1h2.23c.56,0,1.01-.14,1.35-.42.33-.28.5-.67.5-1.18,0-.47-.16-.84-.49-1.11-.33-.27-.78-.4-1.35-.4h-2.24ZM102.05,36.67h2.26c.69,0,1.19-.14,1.49-.43.3-.29.45-.66.45-1.11s-.16-.83-.49-1.1c-.33-.28-.81-.42-1.45-.42h-2.26v3.07Z" style="fill:#2d2e87;"/><path d="M113.14,37.83c-.75,0-1.43-.17-2.02-.52-.59-.35-1.06-.87-1.4-1.57-.34-.7-.51-1.57-.51-2.62s.17-1.94.51-2.64c.34-.7.81-1.22,1.4-1.56.59-.35,1.27-.52,2.02-.52s1.43.17,2.02.52c.59.35,1.06.87,1.4,1.57.34.7.51,1.58.51,2.63s-.17,1.93-.51,2.63c-.34.7-.81,1.22-1.4,1.56-.59.34-1.27.51-2.02.51M113.14,36.79c.85,0,1.53-.31,2.02-.93.49-.62.74-1.54.74-2.74s-.25-2.09-.74-2.73c-.5-.64-1.17-.96-2.02-.96s-1.52.32-2.02.96c-.5.64-.75,1.56-.75,2.74s.25,2.11.75,2.73c.5.62,1.17.93,2.02.93" style="fill:#2d2e87;"/><path d="M119.27,37.65v-9.09h3.17c1.04,0,1.82.25,2.36.74.53.49.8,1.14.8,1.95s-.27,1.44-.8,1.94c-.53.5-1.32.74-2.36.74h-2.04v3.72h-1.13ZM120.4,33.14h1.95c.68,0,1.2-.17,1.55-.5.36-.34.53-.77.53-1.31s-.17-.99-.51-1.31c-.34-.32-.84-.49-1.49-.49h-2.04v3.61ZM124.36,37.65l-2.61-4.13h1.23l2.84,4.13h-1.46Z" style="fill:#2d2e87;"/><polygon points="128.12 28.56 129.47 28.56 134.09 36.05 133.98 36.05 133.98 28.56 135.11 28.56 135.11 37.65 133.85 37.65 129.08 29.92 129.25 29.92 129.25 37.65 128.12 37.65 128.12 28.56" style="fill:#2d2e87;"/></g></g></svg>