<?xml version="1.0" encoding="UTF-8"?><svg id="b" xmlns="http://www.w3.org/2000/svg" viewBox="0 0 141.84 58.69"><g id="c"><text transform="translate(0 55.34) scale(1 1.01)" style="fill:#213a8f; font-family:Karla-Bold, Karla; font-size:13.22px; font-weight:700;"><tspan x="0" y="0">Universitätsbibliothek</tspan></text><path d="M3,35.06l3.8-2.97c-1.35-1.84-2.05-4.42-2.05-7.69V0H0v24.4c0,3.28.54,6.1,1.61,8.38.39.83.86,1.59,1.39,2.28" style="fill:#213a8f;"/><path d="M23.99,0v24.4c0,2.43-.35,4.45-1.04,6.02-.71,1.61-1.8,2.84-3.25,3.63-1.42.78-3.22,1.18-5.34,1.18s-3.79-.37-5.18-1.09l-3.93,3.07c.35.25.72.5,1.11.71,2.11,1.18,4.81,1.78,8,1.78,2.24,0,4.28-.31,6.07-.93,1.77-.61,3.28-1.56,4.51-2.81,1.23-1.26,2.18-2.86,2.83-4.76.66-1.92.99-4.22.99-6.81V0h-4.76Z" style="fill:#213a8f;"/><path d="M63.85,24.1c-.5-1.17-1.26-2.22-2.25-3.11-.99-.89-2.22-1.57-3.65-2.02l-1.29-.41,1.24-.54c1.73-.76,3.06-1.84,3.95-3.23.9-1.39,1.35-2.96,1.35-4.66s-.38-3.33-1.12-4.89c-.73-1.53-1.98-2.79-3.71-3.77C56.64.5,54.18,0,51.08,0h-14.71v39.02h15.59c2.38,0,4.41-.33,6.03-.98,1.61-.64,2.91-1.51,3.87-2.59.97-1.08,1.67-2.28,2.1-3.58.43-1.32.65-2.65.65-3.96s-.26-2.64-.76-3.82M59.23,31.19c-.43,1.02-1.2,1.87-2.3,2.51-1.07.63-2.56.96-4.42.96h-11.38v-.16h0s0-26.98,0-26.98h0v-3.22h10.17c1.94,0,3.39.29,4.43.9,1.05.61,1.78,1.41,2.16,2.38.37.93.55,1.87.55,2.8,0,1.9-.72,3.46-2.13,4.61-1.38,1.13-3.46,1.7-6.18,1.7h-5.91v4.22h6.52c2.38,0,4.25.34,5.57,1.02,1.35.69,2.29,1.61,2.81,2.74.49,1.09.74,2.26.74,3.47,0,1.04-.21,2.06-.63,3.04" style="fill:#213a8f;"/></g></svg>