<?xml version="1.0" encoding="UTF-8"?><svg id="b" xmlns="http://www.w3.org/2000/svg" xmlns:xlink="http://www.w3.org/1999/xlink" viewBox="0 0 154.85 84.63"><defs><clipPath id="d"><rect width="154.85" height="84.63" style="fill:none;"/></clipPath></defs><g id="c"><g style="clip-path:url(#d);"><g id="e"><path d="M41.9,32.05h6.2v41.06c-.94-.41-1.97-.64-3.06-.64s-2.18.24-3.14.68v-41.09Z" style="fill:#2d2e87; fill-rule:evenodd;"/><rect x="31.45" y="32.05" width="6.2" height="47.95" style="fill:#2d2e87;"/><rect x="20.99" y="32.05" width="6.2" height="47.95" style="fill:#2d2e87;"/><rect x="10.54" y="32.05" width="6.2" height="47.95" style="fill:#2d2e87;"/><rect x=".09" y="32.05" width="6.2" height="47.95" style="fill:#2d2e87;"/><path d="M40.64,80.12c0-2.41,1.95-4.36,4.36-4.36s4.36,1.95,4.36,4.36-1.95,4.36-4.36,4.36-4.36-1.95-4.36-4.36" style="fill:#2d2e87; fill-rule:evenodd;"/><path d="M58.58,32.08h1.13v5.81c0,.85.22,1.47.64,1.85.43.38.99.57,1.69.57s1.25-.19,1.68-.57c.43-.38.64-.99.64-1.85v-5.81h1.13v5.81c0,.76-.14,1.4-.42,1.92-.28.51-.68.9-1.2,1.16-.52.26-1.12.39-1.82.39s-1.31-.13-1.83-.39c-.52-.26-.92-.64-1.2-1.16-.29-.51-.43-1.15-.43-1.92v-5.81Z" style="fill:#2d2e87;"/><polygon points="68.23 32.08 69.57 32.08 74.19 39.56 74.09 39.56 74.09 32.08 75.22 32.08 75.22 41.17 73.96 41.17 69.18 33.44 69.36 33.44 69.36 41.17 68.23 41.17 68.23 32.08" style="fill:#2d2e87;"/><rect x="78.14" y="32.08" width="1.13" height="9.09" style="fill:#2d2e87;"/><polygon points="84.73 39.97 87.42 32.08 88.63 32.08 85.38 41.17 84.21 41.17 81 32.08 82.2 32.08 84.88 39.97 84.73 39.97" style="fill:#2d2e87;"/><polygon points="90.33 41.17 90.33 32.08 95.93 32.08 95.93 33.05 91.46 33.05 91.46 36.1 95.67 36.1 95.67 37.07 91.46 37.07 91.46 40.18 95.93 40.18 95.93 41.17 90.33 41.17" style="fill:#2d2e87;"/><path d="M98.48,41.17v-9.09h3.17c1.04,0,1.82.25,2.36.74.53.49.8,1.14.8,1.95s-.27,1.44-.8,1.94c-.53.5-1.32.74-2.36.74h-2.04v3.72h-1.13ZM99.61,36.65h1.95c.68,0,1.2-.17,1.55-.5.36-.34.53-.77.53-1.31s-.17-.99-.51-1.31c-.34-.32-.84-.49-1.49-.49h-2.04v3.61ZM103.57,41.17l-2.61-4.13h1.23l2.84,4.13h-1.46Z" style="fill:#2d2e87;"/><path d="M110.26,41.34c-.61,0-1.17-.11-1.67-.33-.51-.22-.91-.54-1.22-.97-.31-.43-.47-.96-.48-1.59h1.1c0,.42.1.77.31,1.05.21.27.48.47.83.61.34.13.72.2,1.12.2.44,0,.82-.07,1.14-.21.32-.14.57-.32.75-.55.18-.23.26-.48.26-.76,0-.39-.12-.7-.35-.94-.24-.24-.59-.43-1.05-.58l-1.61-.57c-.75-.27-1.32-.58-1.71-.93-.39-.35-.58-.83-.58-1.46,0-.7.27-1.28.81-1.72.54-.44,1.31-.67,2.31-.67.93,0,1.65.21,2.17.64.52.43.82,1,.9,1.72h-1.11c-.07-.42-.27-.75-.59-.98-.32-.23-.78-.35-1.36-.35s-1.06.13-1.4.4c-.33.27-.5.6-.5,1.01,0,.33.1.6.31.79.21.2.54.37.99.53l1.88.65c.65.22,1.17.52,1.55.91.38.39.57.9.57,1.52,0,.48-.13.92-.39,1.31-.26.39-.64.7-1.14.93-.5.23-1.12.35-1.85.35" style="fill:#2d2e87;"/><rect x="116.1" y="32.08" width="1.13" height="9.09" style="fill:#2d2e87;"/><polygon points="118.78 33.05 118.78 32.08 125.85 32.08 125.85 33.05 122.62 33.05 122.87 32.78 122.87 41.17 121.74 41.17 121.74 32.78 122 33.05 118.78 33.05" style="fill:#2d2e87;"/><path d="M126.31,41.17l3.13-9.09h1.38l3.05,9.09h-1.19l-.77-2.33h-3.62l-.8,2.33h-1.19ZM128.45,31.58c-.17,0-.32-.06-.43-.17-.11-.12-.17-.26-.17-.42,0-.18.06-.33.17-.45.11-.12.25-.18.43-.18s.32.06.43.18c.12.12.18.27.18.45,0,.16-.06.3-.18.42-.12.12-.26.17-.43.17M128.58,37.95h3.04l-1.52-4.5-1.52,4.5ZM131.29,31.58c-.16,0-.31-.06-.42-.17-.12-.12-.18-.26-.18-.43s.06-.32.18-.44c.12-.12.26-.18.42-.18s.32.06.43.18c.12.12.18.27.18.44s-.06.31-.18.43c-.12.12-.26.17-.43.17" style="fill:#2d2e87;"/><polygon points="134.34 33.05 134.34 32.08 141.42 32.08 141.42 33.05 138.18 33.05 138.44 32.78 138.44 41.17 137.31 41.17 137.31 32.78 137.56 33.05 134.34 33.05" style="fill:#2d2e87;"/><path d="M145.87,41.34c-.61,0-1.17-.11-1.67-.33-.51-.22-.91-.54-1.22-.97-.31-.43-.47-.96-.48-1.59h1.1c0,.42.1.77.31,1.05.21.27.48.47.83.61.34.13.72.2,1.12.2.44,0,.82-.07,1.14-.21.32-.14.57-.32.75-.55.18-.23.26-.48.26-.76,0-.39-.12-.7-.35-.94-.24-.24-.59-.43-1.05-.58l-1.61-.57c-.75-.27-1.32-.58-1.71-.93-.39-.35-.58-.83-.58-1.46,0-.7.27-1.28.81-1.72.54-.44,1.31-.67,2.31-.67.93,0,1.65.21,2.17.64.52.43.82,1,.9,1.72h-1.11c-.07-.42-.27-.75-.59-.98-.32-.23-.78-.35-1.36-.35s-1.06.13-1.4.4c-.33.27-.5.6-.5,1.01,0,.33.1.6.31.79.21.2.54.37.99.53l1.88.65c.65.22,1.17.52,1.55.91.38.39.57.9.57,1.52,0,.48-.13.92-.39,1.31-.26.39-.64.7-1.14.93-.5.23-1.12.35-1.85.35" style="fill:#2d2e87;"/><rect x="150.8" y="36.46" width="3.94" height=".98" style="fill:#2d2e87;"/><path d="M58.67,54.6v-9.09h3.4c.67,0,1.22.11,1.66.33.44.22.77.51.98.87.22.36.33.75.33,1.18,0,.52-.14.97-.43,1.36-.29.38-.72.65-1.29.79.37.06.7.19.98.39.28.21.5.46.66.75.16.3.24.61.24.95,0,.31-.05.61-.16.91-.1.29-.28.56-.52.8-.24.24-.56.42-.96.56-.4.14-.9.21-1.49.21h-3.4ZM59.8,46.47v3.1h2.23c.56,0,1.01-.14,1.35-.42.33-.28.5-.67.5-1.18,0-.47-.16-.84-.49-1.11-.33-.27-.78-.4-1.35-.4h-2.24ZM59.8,53.61h2.26c.69,0,1.19-.14,1.49-.43.3-.29.45-.66.45-1.11s-.16-.83-.49-1.1c-.33-.28-.81-.42-1.45-.42h-2.26v3.07Z" style="fill:#2d2e87;"/><rect x="67.67" y="45.5" width="1.13" height="9.09" style="fill:#2d2e87;"/><path d="M71.72,54.6v-9.09h3.4c.67,0,1.22.11,1.66.33.44.22.77.51.98.87.22.36.33.75.33,1.18,0,.52-.14.97-.43,1.36-.29.38-.72.65-1.29.79.37.06.7.19.98.39.28.21.5.46.66.75.16.3.24.61.24.95,0,.31-.05.61-.16.91-.1.29-.28.56-.52.8-.24.24-.56.42-.96.56-.4.14-.9.21-1.49.21h-3.4ZM72.85,46.47v3.1h2.23c.56,0,1.01-.14,1.35-.42.33-.28.5-.67.5-1.18,0-.47-.16-.84-.49-1.11-.33-.27-.78-.4-1.35-.4h-2.24ZM72.85,53.61h2.26c.69,0,1.19-.14,1.49-.43.3-.29.45-.66.45-1.11s-.16-.83-.49-1.1c-.33-.28-.81-.42-1.45-.42h-2.26v3.07Z" style="fill:#2d2e87;"/><polygon points="81.85 45.5 81.85 53.61 85.9 53.61 85.9 54.6 80.72 54.6 80.72 45.5 81.85 45.5" style="fill:#2d2e87;"/><rect x="87.49" y="45.5" width="1.13" height="9.09" style="fill:#2d2e87;"/><path d="M94.75,54.77c-.75,0-1.43-.17-2.02-.52-.59-.35-1.06-.87-1.4-1.57-.34-.7-.51-1.57-.51-2.62s.17-1.94.51-2.64c.34-.7.81-1.22,1.4-1.56.59-.35,1.27-.52,2.02-.52s1.43.17,2.02.52c.59.35,1.06.87,1.4,1.57.34.7.51,1.58.51,2.63s-.17,1.93-.51,2.63c-.34.7-.81,1.22-1.4,1.56-.59.34-1.27.51-2.02.51M94.75,53.73c.85,0,1.53-.31,2.02-.93.49-.62.74-1.54.74-2.74s-.25-2.09-.74-2.73c-.49-.64-1.17-.96-2.02-.96s-1.52.32-2.02.96c-.5.64-.75,1.56-.75,2.74s.25,2.11.75,2.73c.5.62,1.17.93,2.02.93" style="fill:#2d2e87;"/><polygon points="99.51 46.47 99.51 45.5 106.59 45.5 106.59 46.47 103.35 46.47 103.61 46.21 103.61 54.6 102.48 54.6 102.48 46.21 102.73 46.47 99.51 46.47" style="fill:#2d2e87;"/><polygon points="108.13 45.5 109.26 45.5 109.26 49.51 113.76 49.51 113.76 45.5 114.88 45.5 114.88 54.6 113.76 54.6 113.76 50.48 109.26 50.48 109.26 54.6 108.13 54.6 108.13 45.5" style="fill:#2d2e87;"/><polygon points="117.8 54.6 117.8 45.5 123.4 45.5 123.4 46.47 118.92 46.47 118.92 49.53 123.14 49.53 123.14 50.5 118.92 50.5 118.92 53.61 123.4 53.61 123.4 54.6 117.8 54.6" style="fill:#2d2e87;"/><path d="M125.95,45.5h1.14v9.09h-1.14v-9.09ZM131.17,45.5h1.56l-5.81,5.98v-1.59l4.24-4.39ZM128.57,49.34l4.42,5.26h-1.48l-3.75-4.52.81-.74Z" style="fill:#2d2e87;"/><path d="M58.66,68v-9.09h2.92c1,0,1.76.25,2.29.76.53.5.79,1.19.79,2.05s-.26,1.53-.79,2.03c-.53.5-1.29.75-2.29.75h-1.78v3.5h-1.14ZM59.8,63.51h1.78c.63,0,1.11-.16,1.44-.48.33-.32.49-.76.49-1.31s-.16-1.01-.49-1.34c-.33-.33-.8-.5-1.44-.5h-1.78v3.63Z" style="fill:#2d2e87;"/><path d="M65.05,68l3.13-9.09h1.38l3.05,9.09h-1.19l-.77-2.33h-3.62l-.8,2.33h-1.19ZM67.32,64.79h3.04l-1.52-4.5-1.52,4.5Z" style="fill:#2d2e87;"/><path d="M74.45,58.91h2.66c.92,0,1.71.19,2.39.56.68.37,1.2.9,1.57,1.58.37.68.56,1.48.56,2.4s-.19,1.71-.56,2.39c-.37.68-.9,1.21-1.57,1.59-.68.38-1.47.57-2.39.57h-2.66v-9.09ZM75.58,59.91v7.11h1.53c.69,0,1.28-.15,1.77-.46.49-.31.88-.73,1.14-1.27.27-.54.4-1.15.4-1.83s-.13-1.29-.4-1.83c-.27-.53-.65-.95-1.14-1.26-.49-.31-1.08-.46-1.77-.46h-1.53Z" style="fill:#2d2e87;"/><polygon points="83.99 68 83.99 58.91 89.6 58.91 89.6 59.88 85.12 59.88 85.12 62.94 89.33 62.94 89.33 63.91 85.12 63.91 85.12 67.02 89.6 67.02 89.6 68 83.99 68" style="fill:#2d2e87;"/><path d="M92.14,68v-9.09h3.17c1.04,0,1.82.25,2.36.74.53.49.8,1.14.8,1.95s-.27,1.44-.8,1.94c-.53.5-1.32.74-2.36.74h-2.04v3.72h-1.13ZM93.27,63.49h1.95c.68,0,1.2-.17,1.55-.5.36-.34.53-.77.53-1.31s-.17-.99-.51-1.31c-.34-.32-.84-.49-1.49-.49h-2.04v3.61ZM97.24,68l-2.61-4.13h1.23l2.84,4.13h-1.46Z" style="fill:#2d2e87;"/><path d="M101.01,68v-9.09h3.4c.67,0,1.22.11,1.66.33.44.22.77.51.98.87.22.36.33.75.33,1.18,0,.52-.14.97-.43,1.36-.29.38-.72.65-1.29.79.37.06.7.19.98.39.28.21.5.46.66.75.16.3.24.61.24.95,0,.31-.05.61-.16.91-.1.29-.28.56-.52.8-.24.24-.56.42-.96.56-.4.14-.9.21-1.49.21h-3.4ZM102.14,59.88v3.1h2.23c.56,0,1.01-.14,1.35-.42.33-.28.5-.67.5-1.18,0-.47-.16-.84-.49-1.11-.33-.27-.78-.4-1.35-.4h-2.24ZM102.14,67.02h2.26c.69,0,1.19-.14,1.49-.43.3-.29.45-.66.45-1.11s-.16-.83-.49-1.1c-.33-.28-.81-.42-1.45-.42h-2.26v3.07Z" style="fill:#2d2e87;"/><path d="M113.22,68.18c-.75,0-1.43-.17-2.02-.52-.59-.35-1.06-.87-1.4-1.57-.34-.7-.51-1.57-.51-2.62s.17-1.94.51-2.64c.34-.7.81-1.22,1.4-1.56.59-.35,1.27-.52,2.02-.52s1.43.17,2.02.52c.59.35,1.06.87,1.4,1.57.34.7.51,1.58.51,2.63s-.17,1.93-.51,2.63c-.34.7-.81,1.22-1.4,1.56-.59.34-1.27.51-2.02.51M113.22,67.13c.85,0,1.53-.31,2.02-.93.49-.62.74-1.54.74-2.74s-.25-2.09-.74-2.73c-.5-.64-1.17-.96-2.02-.96s-1.52.32-2.02.96c-.5.64-.75,1.56-.75,2.74s.25,2.11.75,2.73c.5.62,1.17.93,2.02.93" style="fill:#2d2e87;"/><path d="M119.35,68v-9.09h3.17c1.04,0,1.82.25,2.36.74.53.49.8,1.14.8,1.95s-.27,1.44-.8,1.94c-.53.5-1.32.74-2.36.74h-2.04v3.72h-1.13ZM120.48,63.49h1.95c.68,0,1.2-.17,1.55-.5.36-.34.53-.77.53-1.31s-.17-.99-.51-1.31c-.34-.32-.84-.49-1.49-.49h-2.04v3.61ZM124.45,68l-2.61-4.13h1.23l2.84,4.13h-1.46Z" style="fill:#2d2e87;"/><polygon points="128.21 58.91 129.55 58.91 134.17 66.4 134.07 66.4 134.07 58.91 135.2 58.91 135.2 68 133.94 68 129.16 60.27 129.34 60.27 129.34 68 128.21 68 128.21 58.91" style="fill:#2d2e87;"/></g></g></g></svg>