<svg xmlns="http://www.w3.org/2000/svg" id="ub-logo" viewBox="0 0 1220.4 446">
  <defs>
    <style>.cls-1{letter-spacing:-.04em;}.cls-2{letter-spacing:-.04em;}.cls-3{font-family:Karla-Regular, Karla;font-size:116px;}.cls-3,.cls-4{fill:#0025aa;}.cls-4{fill-rule:evenodd;stroke-width:0px;}</style>
  </defs>
  <g id="Variante_3_einfarbig_">
    <g id="Logo_Kopie_Kopie">
      <polygon class="cls-4" points="251 22.17 301 22.17 301 411.26 251 411.26 251 22.17 251 22.17"></polygon>
      <polygon class="cls-4" points="168 22.17 217 22.17 217 411.26 168 411.26 168 22.17 168 22.17"></polygon>
      <polygon class="cls-4" points="84 22.17 134 22.17 134 411.26 84 411.26 84 22.17 84 22.17"></polygon>
      <polygon class="cls-4" points="0 22.17 50 22.17 50 411.26 0 411.26 0 22.17 0 22.17"></polygon>
      <path class="cls-4" d="m335,22.17h50v333.27c-15.86-7.24-34.14-7.24-50,0V22.17Z"></path>
      <path class="cls-4" d="m325.09,410.53c.35-19.23,16.27-34.54,35.55-34.18,19.28.35,34.62,16.23,34.26,35.46-.35,18.98-15.87,34.19-34.9,34.19-19.37-.09-35-15.82-34.91-35.15,0-.11,0-.22,0-.32Z"></path>
    </g>
    <g id="Schrift_Kopie_Kopie">
      <text class="cls-3" transform="translate(445 95.12)">
        <tspan x="0" y="0">UNIVERSI</tspan>
        <tspan class="cls-2" x="491.66" y="0">TÄ</tspan>
        <tspan x="606.85" y="0">TS-</tspan>
        <tspan x="0" y="100">BIBLIOTHEK</tspan>
        <tspan class="cls-1" x="0" y="200">P</tspan>
        <tspan x="59.68" y="200">ADERBORN</tspan>
      </text>
    </g>
  </g>
</svg>
