<?xml version="1.0" encoding="utf-8"?>
<!-- Generator: Adobe Illustrator 27.5.0, SVG Export Plug-In . SVG Version: 6.00 Build 0)  -->
<svg version="1.1" id="Ebene_1" xmlns="http://www.w3.org/2000/svg" xmlns:xlink="http://www.w3.org/1999/xlink" x="0px" y="0px"
	 viewBox="0 0 393.1 123.4" style="enable-background:new 0 0 393.1 123.4;" xml:space="preserve">
<style type="text/css">
	.st0{fill:#FFFFFF;}
	.st1{fill:none;}
</style>
<g>
	<path class="st0" d="M122.9,122.9V90.2h11.8c2.6,0,4.7,0.5,6.2,1.4c1.5,1,2.6,2.2,3.3,3.7c0.6,1.5,1,3,1,4.7c0,1.1-0.2,2.3-0.6,3.4
		c-0.4,1.1-1,2.2-1.8,3.1c-0.8,1-1.9,1.7-3.2,2.3c-1.3,0.6-2.9,0.9-4.9,0.9h-8.5v13.3H122.9z M126.2,106.6h8.7c1.7,0,3.1-0.3,4.2-1
		c1-0.7,1.8-1.5,2.2-2.5c0.4-1,0.7-2,0.7-3.1c0-1-0.2-2-0.6-3c-0.4-1-1.1-1.9-2.1-2.6c-1-0.7-2.5-1-4.3-1h-8.7V106.6z"/>
	<path class="st0" d="M146,122.9l11.5-32.7h2.9l11.5,32.7h-3.4l-2.9-8.4h-13.2l-2.9,8.4H146z M153.3,111.6h11.3l-4.4-12.7
		c-0.1-0.3-0.2-0.7-0.4-1.2c-0.2-0.5-0.3-1-0.5-1.5c-0.2-0.5-0.3-0.9-0.4-1.3c-0.1,0.3-0.2,0.7-0.4,1.3c-0.2,0.5-0.3,1-0.5,1.5
		c-0.2,0.5-0.3,0.9-0.4,1.2L153.3,111.6z"/>
	<path class="st0" d="M178.1,122.9V90.2h8.4c2.8,0,5.1,0.5,7,1.4c1.9,0.9,3.5,2.2,4.6,3.8c1.2,1.6,2,3.3,2.5,5.3
		c0.5,1.9,0.8,3.9,0.8,5.9c0,1.9-0.2,3.8-0.7,5.7c-0.5,1.9-1.3,3.7-2.4,5.3c-1.1,1.6-2.7,2.9-4.6,3.9c-2,1-4.4,1.5-7.3,1.5H178.1z
		 M181.4,119.8h5.3c2.2,0,4-0.4,5.5-1.2c1.5-0.8,2.6-1.8,3.5-3.1c0.9-1.3,1.5-2.7,1.9-4.3c0.4-1.6,0.5-3.1,0.5-4.7
		c0-1.7-0.2-3.3-0.6-4.9c-0.4-1.6-1-3-1.9-4.3c-0.9-1.3-2-2.3-3.4-3c-1.4-0.7-3.1-1.1-5.1-1.1h-5.7V119.8z"/>
	<path class="st0" d="M207.9,122.9V90.2h18.6v3.1h-15.4v11.2h10.2v3.1h-10.2v12.3h16.4v3.1H207.9z"/>
	<path class="st0" d="M234.8,122.9V90.2h12.3c2.5,0,4.5,0.4,6,1.3c1.5,0.9,2.5,2,3.1,3.4c0.6,1.4,0.9,2.8,0.9,4.3
		c0,1.4-0.3,2.7-0.8,3.9c-0.5,1.3-1.4,2.3-2.6,3.3c-1.2,0.9-2.7,1.5-4.6,1.8l7.2,14.7h-3.7l-7-14.5H238v14.5H234.8z M238,105.4h9.1
		c1.7,0,3-0.3,3.9-0.9c1-0.6,1.7-1.4,2.1-2.3c0.4-0.9,0.6-1.9,0.6-2.9c0-0.9-0.2-1.8-0.6-2.7c-0.4-0.9-1.1-1.7-2-2.4
		c-1-0.6-2.3-1-4.1-1H238V105.4z"/>
	<path class="st0" d="M265.5,122.9V90.2h11.1c2.5,0,4.5,0.4,5.9,1.2c1.4,0.8,2.5,1.9,3.1,3.2c0.6,1.3,0.9,2.7,0.9,4.1
		c0,1.6-0.5,3-1.4,4.3c-0.9,1.3-2.2,2.2-3.9,2.8c1.3,0.3,2.5,0.8,3.5,1.6c1,0.7,1.7,1.7,2.2,2.8c0.5,1.1,0.8,2.3,0.8,3.7
		c0,1.1-0.2,2.2-0.5,3.3c-0.4,1.1-0.9,2.1-1.7,3c-0.8,0.9-1.8,1.6-3.2,2.2c-1.3,0.5-3,0.8-4.9,0.8H265.5z M268.8,104.4h7
		c2.5,0,4.3-0.5,5.6-1.6c1.2-1.1,1.9-2.5,1.9-4.2c0-0.9-0.2-1.8-0.5-2.6c-0.3-0.8-1-1.5-1.9-2.1c-0.9-0.5-2.3-0.8-4-0.8h-8V104.4z
		 M268.8,119.9h9c1.7,0,3.1-0.3,4-0.9c1-0.6,1.6-1.3,2-2.2c0.4-0.9,0.6-1.8,0.6-2.8c0-1.1-0.2-2.2-0.7-3.2c-0.5-1-1.3-1.8-2.4-2.4
		c-1.2-0.6-2.8-0.9-5-0.9h-7.5V119.9z"/>
	<path class="st0" d="M308.1,123.5c-2.5,0-4.6-0.5-6.3-1.5c-1.7-1-3.1-2.3-4.2-3.9c-1.1-1.6-1.8-3.5-2.3-5.5c-0.5-2-0.7-4-0.7-6
		c0-2,0.2-4,0.7-6c0.5-2,1.3-3.8,2.3-5.5c1.1-1.6,2.4-3,4.2-3.9c1.7-1,3.8-1.5,6.3-1.5c2.5,0,4.6,0.5,6.4,1.5c1.7,1,3.1,2.3,4.2,3.9
		c1,1.6,1.8,3.5,2.3,5.5c0.5,2,0.7,4,0.7,6c0,2-0.2,4-0.7,6c-0.5,2-1.2,3.8-2.3,5.5c-1,1.6-2.4,3-4.2,3.9
		C312.7,123,310.6,123.5,308.1,123.5z M308.1,120.3c1.9,0,3.5-0.4,4.8-1.3c1.3-0.8,2.3-1.9,3.1-3.3c0.8-1.4,1.4-2.9,1.7-4.5
		c0.4-1.6,0.5-3.2,0.5-4.8c0-1.7-0.2-3.4-0.5-5c-0.4-1.6-0.9-3.1-1.7-4.5c-0.8-1.3-1.8-2.4-3.1-3.2c-1.3-0.8-2.9-1.2-4.8-1.2
		c-1.9,0-3.4,0.4-4.7,1.3c-1.3,0.8-2.3,1.9-3.1,3.3c-0.8,1.4-1.4,2.9-1.7,4.5c-0.4,1.6-0.5,3.2-0.5,4.8c0,1.7,0.2,3.4,0.5,5
		c0.4,1.6,0.9,3.1,1.7,4.4c0.8,1.3,1.8,2.4,3.1,3.2C304.7,119.9,306.3,120.3,308.1,120.3z"/>
	<path class="st0" d="M329.9,122.9V90.2h12.3c2.5,0,4.5,0.4,6,1.3c1.5,0.9,2.5,2,3.1,3.4c0.6,1.4,0.9,2.8,0.9,4.3
		c0,1.4-0.3,2.7-0.8,3.9s-1.4,2.3-2.6,3.3c-1.2,0.9-2.7,1.5-4.6,1.8l7.2,14.7h-3.7l-7-14.5h-7.7v14.5H329.9z M333.2,105.4h9.1
		c1.7,0,3-0.3,3.9-0.9c1-0.6,1.7-1.4,2.1-2.3c0.4-0.9,0.6-1.9,0.6-2.9c0-0.9-0.2-1.8-0.6-2.7c-0.4-0.9-1.1-1.7-2-2.4
		c-1-0.6-2.3-1-4.1-1h-9.1V105.4z"/>
	<path class="st0" d="M360.8,122.9V90.2h3.3l15.2,24.6c0.2,0.4,0.5,0.8,0.7,1.2c0.2,0.4,0.5,0.8,0.7,1.3c0-0.4,0-0.8,0-1.2
		c0-0.4,0-0.8,0-1.2V90.2h3.3v32.7h-3.2l-15.4-24.6c-0.2-0.4-0.4-0.7-0.7-1.1c-0.2-0.4-0.5-0.8-0.7-1.2c0,0.4,0.1,0.7,0.1,1.1
		c0,0.4,0,0.8,0,1.2v24.6H360.8z"/>
	<g>
		<path class="st0" d="M363.9,46.8c-0.6,0-1.1-0.2-1.5-0.6c-0.4-0.4-0.6-0.9-0.6-1.5c0-0.6,0.2-1.1,0.6-1.6c0.4-0.4,0.9-0.6,1.5-0.6
			c0.6,0,1.1,0.2,1.6,0.6c0.4,0.4,0.6,0.9,0.6,1.6c0,0.6-0.2,1.1-0.6,1.5C365,46.6,364.5,46.8,363.9,46.8z"/>
		<path class="st0" d="M353.7,46.8c-0.6,0-1.1-0.2-1.5-0.6c-0.4-0.4-0.6-0.9-0.6-1.5c0-0.6,0.2-1.1,0.6-1.6c0.4-0.4,0.9-0.6,1.5-0.6
			c0.6,0,1.1,0.2,1.6,0.6c0.4,0.4,0.6,0.9,0.6,1.6c0,0.6-0.2,1.1-0.6,1.5C354.8,46.6,354.3,46.8,353.7,46.8z"/>
	</g>
	<path class="st0" d="M134.2,81.9c-2.6,0-4.7-0.5-6.4-1.5c-1.7-1-2.9-2.4-3.7-4.3c-0.8-1.9-1.2-4.2-1.2-6.9V48.6h3.3v20.6
		c0,3,0.6,5.4,1.9,7.1c1.2,1.7,3.3,2.5,6.1,2.5c1.7,0,3.1-0.3,4.3-1c1.2-0.6,2.1-1.7,2.8-3.1c0.6-1.4,1-3.3,1-5.6V48.6h3.3v20.6
		c0,2.2-0.2,4-0.7,5.6c-0.5,1.6-1.2,2.9-2.2,3.9c-1,1.1-2.1,1.8-3.6,2.3C137.7,81.6,136,81.9,134.2,81.9z"/>
	<path class="st0" d="M154.8,81.3V48.6h3.3l15.2,24.6c0.2,0.4,0.5,0.8,0.7,1.2s0.5,0.8,0.7,1.3c0-0.4,0-0.8,0-1.2c0-0.4,0-0.8,0-1.2
		V48.6h3.3v32.7h-3.2l-15.4-24.6c-0.2-0.4-0.4-0.7-0.7-1.1c-0.2-0.4-0.5-0.8-0.7-1.2c0,0.4,0.1,0.7,0.1,1.1c0,0.4,0,0.8,0,1.2v24.6
		H154.8z"/>
	<path class="st0" d="M187.7,81.3V48.6h3.3v32.7H187.7z"/>
	<path class="st0" d="M209.8,81.3l-11.2-32.7h3.5l8.3,24.9c0.1,0.4,0.3,0.9,0.4,1.3c0.1,0.5,0.3,1,0.4,1.5c0.1-0.5,0.3-1,0.4-1.5
		c0.1-0.5,0.3-0.9,0.4-1.4l8.2-24.9h3.5l-11.2,32.7H209.8z"/>
	<path class="st0" d="M230.3,81.3V48.6h18.6v3.1h-15.4v11.2h10.2v3.1h-10.2v12.3H250v3.1H230.3z"/>
	<path class="st0" d="M256.8,81.3V48.6h12.3c2.5,0,4.5,0.4,6,1.3c1.5,0.9,2.5,2,3.1,3.4c0.6,1.4,0.9,2.8,0.9,4.3
		c0,1.4-0.3,2.7-0.8,3.9c-0.5,1.3-1.4,2.3-2.6,3.3c-1.2,0.9-2.7,1.5-4.6,1.8l7.2,14.7h-3.7l-7-14.5h-7.7v14.5H256.8z M260.1,63.8
		h9.1c1.7,0,3-0.3,3.9-0.9c1-0.6,1.7-1.4,2.1-2.3c0.4-0.9,0.6-1.9,0.6-2.9c0-0.9-0.2-1.8-0.6-2.7c-0.4-0.9-1.1-1.7-2-2.4
		c-1-0.6-2.3-1-4.1-1h-9.1V63.8z"/>
	<path class="st0" d="M295.9,81.9c-1.8,0-3.5-0.3-5-0.9c-1.5-0.6-2.7-1.5-3.8-2.6c-1-1.1-1.8-2.3-2.3-3.6l3.2-1.1
		c0.7,1.5,1.7,2.8,3.1,3.7c1.4,1,3,1.4,4.8,1.4c2.1,0,3.7-0.5,5-1.5c1.3-1,1.9-2.5,1.9-4.5c0-1.3-0.4-2.5-1.1-3.4
		c-0.7-0.9-1.7-1.7-2.8-2.4c-1.2-0.6-2.4-1.2-3.7-1.7c-1.1-0.4-2.2-0.9-3.4-1.4c-1.1-0.5-2.1-1.1-3-1.8c-0.9-0.7-1.6-1.6-2.2-2.6
		c-0.5-1-0.8-2.2-0.8-3.6c0-1.4,0.4-2.7,1.1-3.9c0.8-1.2,1.8-2.1,3.3-2.8c1.4-0.7,3.2-1.1,5.2-1.1c1.6,0,3,0.2,4.3,0.7
		c1.3,0.5,2.3,1.2,3.2,2c0.8,0.9,1.4,1.8,1.8,2.9l-3.1,1c-0.4-1.1-1.2-2-2.3-2.6c-1.1-0.7-2.5-1-4.1-1c-1.9,0-3.3,0.4-4.4,1.3
		c-1.1,0.8-1.6,2-1.6,3.5c0,1.1,0.4,2.1,1.1,2.9c0.7,0.8,1.6,1.4,2.7,2c1.1,0.5,2.3,1.1,3.6,1.6c1.1,0.4,2.2,0.9,3.4,1.5
		c1.1,0.6,2.2,1.2,3.1,2c0.9,0.8,1.7,1.8,2.3,2.9c0.6,1.1,0.9,2.5,0.9,4.1c0,2-0.4,3.6-1.3,5c-0.9,1.4-2.1,2.4-3.7,3.1
		C299.6,81.5,297.9,81.9,295.9,81.9z"/>
	<path class="st0" d="M314.3,81.3V48.6h3.3v32.7H314.3z"/>
	<path class="st0" d="M333.8,81.3V51.8h-9.1v-3.2h21.4v3.2h-9.1v29.6H333.8z"/>
	<path class="st0" d="M345.9,81.3l11.5-32.7h2.9l11.5,32.7h-3.4l-2.9-8.4h-13.2l-2.9,8.4H345.9z M353.2,70.1h11.3l-4.4-12.7
		c-0.1-0.3-0.2-0.7-0.4-1.2c-0.2-0.5-0.3-1-0.5-1.5s-0.3-0.9-0.4-1.3c-0.1,0.3-0.2,0.7-0.4,1.3s-0.3,1-0.5,1.5
		c-0.2,0.5-0.3,0.9-0.4,1.2L353.2,70.1z"/>
	<path class="st0" d="M380.7,81.3V51.8h-9.1v-3.2h21.4v3.2H384v29.6H380.7z"/>
	<path class="st0" d="M79.7,36.6l15.3,12v60.8L79.7,60.6V36.6L79.7,36.6z"/>
	<path class="st0" d="M69.5,68.6l18.9,42.6L53.2,81.4V12.8L69.5,0V68.6z"/>
	<path class="st0" d="M42.9,89.4l40.5,26.8l-56.8-14V49.4l16.3-12.8L42.9,89.4L42.9,89.4z"/>
	<path class="st0" d="M16.3,109.4v0.8l65.3,12.8H0V86l16.3-12.8V109.4z"/>
</g>
<rect y="0" class="st1" width="393.1" height="123.4"/>
</svg>
