<?xml version="1.0" encoding="UTF-8"?><svg id="b" xmlns="http://www.w3.org/2000/svg" viewBox="0 0 294.78 92.58"><g id="c"><path d="M92.16,92.16v-24.54h8.82c1.97,0,3.53.36,4.68,1.07,1.14.71,1.96,1.63,2.44,2.75.49,1.12.73,2.28.73,3.49,0,.84-.14,1.69-.42,2.54-.28.85-.73,1.64-1.36,2.36-.63.72-1.43,1.3-2.43,1.73-.99.44-2.21.66-3.64.66h-6.36v9.94h-2.45ZM94.61,79.91h6.5c1.31,0,2.35-.25,3.12-.76.77-.51,1.32-1.14,1.65-1.91.33-.77.49-1.53.49-2.3s-.15-1.51-.45-2.28c-.3-.77-.83-1.42-1.59-1.94-.76-.52-1.84-.78-3.22-.78h-6.5v9.97Z" style="fill:#2d2e87;"/><path d="M109.49,92.16l8.6-24.54h2.19l8.6,24.54h-2.54l-2.19-6.29h-9.9l-2.17,6.29h-2.59ZM114.96,83.71h8.46l-3.29-9.55c-.07-.21-.17-.5-.29-.87-.12-.37-.25-.74-.37-1.13-.12-.39-.21-.7-.27-.95-.06.24-.15.56-.27.95-.12.39-.24.76-.37,1.13-.12.37-.22.66-.29.87l-3.31,9.55Z" style="fill:#2d2e87;"/><path d="M133.57,92.16v-24.54h6.33c2.08,0,3.84.35,5.27,1.05,1.44.7,2.59,1.64,3.46,2.81.87,1.17,1.5,2.49,1.89,3.94.39,1.45.59,2.94.59,4.46,0,1.41-.18,2.84-.54,4.28-.36,1.44-.97,2.76-1.82,3.97-.85,1.21-2.01,2.18-3.48,2.92-1.47.73-3.3,1.1-5.51,1.1h-6.19ZM136.03,89.85h4c1.65,0,3.02-.29,4.12-.89,1.1-.59,1.98-1.37,2.63-2.35.65-.97,1.12-2.05,1.39-3.22.27-1.17.41-2.34.41-3.5,0-1.25-.15-2.47-.45-3.65-.3-1.19-.78-2.25-1.44-3.21-.66-.95-1.51-1.71-2.56-2.27-1.05-.56-2.32-.84-3.81-.84h-4.29v19.93Z" style="fill:#2d2e87;"/><polygon points="155.94 92.16 155.94 67.62 169.92 67.62 169.92 69.92 158.39 69.92 158.39 78.31 166.05 78.31 166.05 80.61 158.39 80.61 158.39 89.83 170.69 89.83 170.69 92.16 155.94 92.16" style="fill:#2d2e87;"/><path d="M176.06,92.16v-24.54h9.25c1.9,0,3.4.33,4.49.99,1.09.66,1.87,1.51,2.33,2.55.46,1.04.69,2.12.69,3.24,0,1.02-.2,2-.6,2.94-.4.95-1.04,1.76-1.92,2.45-.88.68-2.02,1.14-3.44,1.38l5.4,10.99h-2.77l-5.22-10.85h-5.77v10.85h-2.45ZM178.51,79.03h6.85c1.25,0,2.24-.23,2.96-.68.73-.46,1.24-1.03,1.55-1.74.31-.7.46-1.42.46-2.16,0-.65-.14-1.33-.43-2.04-.29-.71-.79-1.3-1.51-1.79-.72-.48-1.73-.73-3.04-.73h-6.85v9.13Z" style="fill:#2d2e87;"/><path d="M199.1,92.16v-24.54h8.31c1.88,0,3.36.31,4.43.92,1.07.61,1.84,1.41,2.3,2.38.46.98.68,1.99.68,3.06,0,1.19-.35,2.26-1.05,3.22-.7.95-1.68,1.64-2.95,2.08,1.01.22,1.87.61,2.59,1.17.72.55,1.28,1.24,1.68,2.07.4.82.6,1.74.6,2.76,0,.82-.13,1.63-.4,2.44-.26.81-.69,1.55-1.28,2.23-.59.67-1.38,1.21-2.38,1.61-.99.4-2.22.6-3.68.6h-8.87ZM201.56,78.31h5.24c1.86,0,3.25-.4,4.19-1.19.93-.79,1.4-1.84,1.4-3.14,0-.67-.13-1.32-.38-1.95-.25-.64-.72-1.16-1.42-1.57-.69-.41-1.7-.61-3.02-.61h-6.01v8.47ZM201.56,89.92h6.75c1.3,0,2.31-.22,3.02-.65.72-.43,1.22-.99,1.51-1.67.29-.68.43-1.38.43-2.12,0-.85-.17-1.66-.51-2.42-.34-.76-.95-1.37-1.82-1.83-.88-.46-2.13-.69-3.75-.69h-5.63v9.38Z" style="fill:#2d2e87;"/><path d="M231.07,92.58c-1.87,0-3.45-.37-4.74-1.11s-2.33-1.73-3.12-2.96c-.79-1.23-1.37-2.6-1.73-4.09-.36-1.49-.54-3-.54-4.52s.18-3.03.54-4.52c.36-1.5.94-2.86,1.73-4.09.79-1.23,1.83-2.22,3.12-2.96s2.87-1.11,4.74-1.11,3.47.37,4.77,1.11,2.34,1.73,3.12,2.96c.78,1.23,1.35,2.6,1.71,4.09.36,1.5.54,3,.54,4.52s-.18,3.03-.54,4.52c-.36,1.49-.93,2.86-1.71,4.09-.78,1.23-1.82,2.22-3.12,2.96s-2.89,1.11-4.77,1.11M231.07,90.25c1.41,0,2.6-.31,3.57-.94.96-.62,1.74-1.45,2.33-2.47.59-1.02,1.02-2.14,1.28-3.36.26-1.21.39-2.41.39-3.59,0-1.29-.13-2.54-.39-3.78-.26-1.23-.69-2.34-1.28-3.34-.59-.99-1.37-1.78-2.33-2.38-.96-.59-2.15-.88-3.57-.88s-2.59.31-3.55.94c-.96.62-1.74,1.45-2.33,2.47-.59,1.02-1.02,2.14-1.29,3.36s-.4,2.42-.4,3.6c0,1.28.13,2.54.4,3.78.27,1.23.7,2.34,1.29,3.33.59.99,1.37,1.78,2.33,2.37.96.59,2.15.89,3.55.89" style="fill:#2d2e87;"/><path d="M247.42,92.16v-24.54h9.25c1.9,0,3.4.33,4.5.99,1.09.66,1.87,1.51,2.33,2.55.46,1.04.69,2.12.69,3.24,0,1.02-.2,2-.6,2.94-.4.95-1.04,1.76-1.92,2.45-.88.68-2.02,1.14-3.44,1.38l5.4,10.99h-2.77l-5.22-10.85h-5.77v10.85h-2.45ZM249.88,79.03h6.85c1.25,0,2.24-.23,2.96-.68.73-.46,1.24-1.03,1.55-1.74.31-.7.46-1.42.46-2.16,0-.65-.14-1.33-.43-2.04-.29-.71-.79-1.3-1.51-1.79-.72-.48-1.73-.73-3.04-.73h-6.85v9.13Z" style="fill:#2d2e87;"/><path d="M270.61,92.16v-24.54h2.47l11.43,18.42c.17.29.35.59.53.88.17.3.35.61.53.94-.01-.3-.02-.61-.04-.91-.01-.3-.02-.6-.02-.88v-18.46h2.45v24.54h-2.37l-11.57-18.47c-.15-.27-.32-.55-.49-.85-.18-.3-.35-.59-.53-.89.02.27.04.55.04.85,0,.3,0,.59,0,.89v18.47h-2.45Z" style="fill:#2d2e87;"/><path d="M272.88,35.11c-.44,0-.82-.16-1.14-.47-.32-.32-.47-.7-.47-1.14,0-.47.16-.86.47-1.17.32-.32.7-.47,1.14-.47.47,0,.86.16,1.17.47.31.32.46.71.46,1.17,0,.44-.15.82-.46,1.14-.31.32-.7.47-1.17.47" style="fill:#2d2e87;"/><path d="M265.22,35.11c-.44,0-.83-.16-1.15-.47-.32-.32-.48-.7-.48-1.14,0-.47.16-.86.48-1.17.32-.32.7-.47,1.15-.47.47,0,.86.16,1.17.47.31.32.46.71.46,1.17,0,.44-.15.82-.46,1.14-.31.32-.7.47-1.17.47" style="fill:#2d2e87;"/><path d="M100.63,61.41c-1.95,0-3.55-.37-4.8-1.11-1.25-.74-2.17-1.82-2.77-3.23-.6-1.41-.89-3.12-.89-5.14v-15.48h2.45v15.46c0,2.27.47,4.03,1.4,5.29.93,1.26,2.47,1.89,4.61,1.89,1.25,0,2.33-.24,3.23-.72.9-.48,1.6-1.24,2.08-2.3s.73-2.44.73-4.17v-15.46h2.45v15.48c0,1.61-.18,3.01-.55,4.2-.37,1.19-.91,2.17-1.63,2.96-.72.79-1.61,1.37-2.66,1.75-1.06.38-2.28.57-3.65.57" style="fill:#2d2e87;"/><path d="M116.11,60.99v-24.54h2.47l11.43,18.42c.18.29.35.59.53.88.18.3.35.61.53.94-.01-.3-.02-.61-.04-.91-.01-.3-.02-.6-.02-.88v-18.46h2.45v24.54h-2.37l-11.57-18.47c-.15-.27-.32-.55-.49-.85-.18-.3-.35-.59-.53-.89.02.27.04.55.04.85,0,.3,0,.59,0,.89v18.47h-2.45Z" style="fill:#2d2e87;"/><rect x="140.73" y="36.45" width="2.45" height="24.54" style="fill:#2d2e87;"/><path d="M157.33,60.99l-8.4-24.54h2.63l6.24,18.65c.1.3.21.64.32,1.01.11.37.22.75.32,1.15.11-.4.21-.77.32-1.13.11-.36.21-.7.32-1.03l6.13-18.65h2.63l-8.38,24.54h-2.14Z" style="fill:#2d2e87;"/><polygon points="172.7 60.99 172.7 36.45 186.68 36.45 186.68 38.75 175.15 38.75 175.15 47.15 182.81 47.15 182.81 49.44 175.15 49.44 175.15 58.66 187.46 58.66 187.46 60.99 172.7 60.99" style="fill:#2d2e87;"/><path d="M192.61,60.99v-24.54h9.25c1.9,0,3.4.33,4.49.99,1.09.66,1.87,1.51,2.33,2.55.46,1.04.69,2.12.69,3.24,0,1.02-.2,2-.6,2.94-.4.95-1.04,1.76-1.92,2.45-.88.68-2.02,1.14-3.44,1.38l5.4,10.99h-2.77l-5.22-10.85h-5.77v10.85h-2.45ZM195.06,47.86h6.85c1.25,0,2.24-.23,2.96-.68.73-.46,1.24-1.03,1.55-1.74.31-.7.46-1.42.46-2.16,0-.65-.14-1.33-.43-2.04-.29-.71-.79-1.3-1.51-1.79-.72-.48-1.73-.73-3.04-.73h-6.85v9.13Z" style="fill:#2d2e87;"/><path d="M221.88,61.41c-1.37,0-2.6-.24-3.71-.71-1.11-.47-2.05-1.11-2.83-1.93-.78-.81-1.35-1.72-1.73-2.72l2.37-.84c.53,1.16,1.31,2.09,2.35,2.8,1.04.71,2.25,1.07,3.63,1.07,1.55,0,2.8-.39,3.74-1.16.94-.77,1.41-1.89,1.41-3.37,0-.99-.27-1.84-.81-2.55-.54-.71-1.24-1.3-2.1-1.79-.86-.48-1.79-.91-2.77-1.27-.84-.32-1.68-.67-2.51-1.06-.84-.39-1.6-.85-2.28-1.39-.68-.53-1.23-1.18-1.64-1.94-.41-.76-.61-1.66-.61-2.7s.28-2.05.85-2.93,1.39-1.59,2.46-2.11c1.07-.53,2.38-.79,3.91-.79,1.2,0,2.28.18,3.22.54.95.36,1.74.86,2.37,1.51.63.64,1.07,1.38,1.33,2.21l-2.29.77c-.33-.81-.9-1.46-1.71-1.97-.81-.51-1.84-.76-3.09-.76-1.4,0-2.5.32-3.3.95-.8.64-1.2,1.51-1.2,2.6,0,.85.26,1.57.79,2.14.53.57,1.21,1.06,2.06,1.47.85.41,1.74.8,2.69,1.17.83.32,1.67.68,2.51,1.1.85.42,1.62.93,2.32,1.53.7.6,1.27,1.33,1.7,2.17.43.85.65,1.86.65,3.04,0,1.47-.34,2.72-1.01,3.74-.67,1.02-1.59,1.8-2.76,2.34-1.17.54-2.5.81-4,.81" style="fill:#2d2e87;"/><rect x="235.72" y="36.45" width="2.45" height="24.54" style="fill:#2d2e87;"/><polygon points="250.32 60.99 250.32 38.82 243.52 38.82 243.52 36.45 259.59 36.45 259.59 38.82 252.77 38.82 252.77 60.99 250.32 60.99" style="fill:#2d2e87;"/><path d="M259.38,60.99l8.6-24.54h2.19l8.61,24.54h-2.54l-2.19-6.29h-9.9l-2.17,6.29h-2.59ZM264.85,52.54h8.46l-3.29-9.55c-.07-.21-.17-.5-.29-.87-.12-.37-.25-.74-.37-1.13-.12-.39-.21-.7-.27-.95-.06.24-.15.56-.27.95-.12.39-.24.76-.37,1.13-.12.37-.22.66-.29.87l-3.31,9.55Z" style="fill:#2d2e87;"/><polygon points="285.51 60.99 285.51 38.82 278.71 38.82 278.71 36.45 294.78 36.45 294.78 38.82 287.97 38.82 287.97 60.99 285.51 60.99" style="fill:#2d2e87;"/><polygon points="59.79 27.45 71.3 36.45 71.3 82.07 59.79 45.45 59.79 27.46 59.79 27.45" style="fill:#64c2c7;"/><polygon points="52.11 51.45 66.26 83.41 39.87 61.01 39.87 9.57 52.11 0 52.11 51.45" style="fill:#3ea8ca;"/><polygon points="32.18 67.01 62.56 87.11 19.93 76.58 19.93 37.02 32.18 27.45 32.18 67.02 32.18 67.01" style="fill:#0578bd;"/><polygon points="12.25 82.01 12.25 82.59 61.2 92.16 0 92.16 0 64.46 12.25 54.89 12.25 82.01" style="fill:#2d2e87;"/></g></svg>