<?xml version="1.0" encoding="UTF-8"?><svg id="b" xmlns="http://www.w3.org/2000/svg" xmlns:xlink="http://www.w3.org/1999/xlink" viewBox="0 0 258.3 84.63"><defs><clipPath id="d"><rect width="258.3" height="84.63" style="fill:none;"/></clipPath></defs><g id="c"><g style="clip-path:url(#d);"><g id="e"><path d="M80.72,80.93v-21.49h7.72c1.73,0,3.1.31,4.1.94,1,.62,1.72,1.43,2.14,2.41.43.98.64,2,.64,3.06,0,.74-.12,1.48-.37,2.23-.25.75-.64,1.44-1.19,2.07-.55.63-1.26,1.14-2.13,1.52-.87.38-1.93.58-3.19.58h-5.57v8.7h-2.15ZM82.87,70.2h5.7c1.15,0,2.06-.22,2.73-.67.68-.44,1.16-1,1.44-1.67.29-.67.43-1.34.43-2.02s-.13-1.32-.39-2c-.26-.68-.73-1.24-1.4-1.7-.67-.46-1.61-.68-2.82-.68h-5.7v8.74Z" style="fill:#2d2e87;"/><path d="M95.91,80.93l7.54-21.49h1.92l7.54,21.49h-2.23l-1.92-5.51h-8.67l-1.9,5.51h-2.27ZM100.7,73.53h7.42l-2.89-8.37c-.06-.18-.15-.44-.25-.76-.11-.32-.22-.65-.32-.99-.11-.34-.19-.61-.24-.83-.05.21-.13.49-.24.83-.11.34-.21.67-.32.99-.11.32-.19.58-.25.76l-2.9,8.37Z" style="fill:#2d2e87;"/><path d="M117,80.93v-21.49h5.54c1.82,0,3.36.31,4.62.92,1.26.61,2.27,1.44,3.03,2.46.76,1.03,1.31,2.18,1.66,3.45.34,1.27.51,2.58.51,3.91,0,1.24-.16,2.49-.48,3.75-.32,1.26-.85,2.42-1.6,3.48-.75,1.06-1.76,1.91-3.05,2.56-1.28.64-2.89.97-4.83.97h-5.42ZM119.15,78.9h3.5c1.44,0,2.65-.26,3.61-.78.96-.52,1.73-1.2,2.3-2.06.57-.85.98-1.8,1.22-2.82.24-1.03.36-2.05.36-3.06,0-1.1-.13-2.16-.39-3.2-.26-1.04-.68-1.97-1.26-2.81-.58-.83-1.33-1.5-2.24-1.99-.92-.49-2.03-.74-3.34-.74h-3.76v17.46Z" style="fill:#2d2e87;"/><polygon points="136.59 80.93 136.59 59.44 148.84 59.44 148.84 61.45 138.74 61.45 138.74 68.8 145.45 68.8 145.45 70.81 138.74 70.81 138.74 78.89 149.52 78.89 149.52 80.93 136.59 80.93" style="fill:#2d2e87;"/><path d="M154.22,80.93v-21.49h8.11c1.67,0,2.98.29,3.94.87.96.58,1.64,1.32,2.04,2.23.4.91.61,1.86.61,2.84,0,.89-.18,1.75-.53,2.58-.35.83-.91,1.54-1.68,2.14-.77.6-1.77,1-3.01,1.21l4.73,9.63h-2.43l-4.58-9.5h-5.05v9.5h-2.15ZM156.37,69.43h6c1.1,0,1.96-.2,2.59-.6.63-.4,1.09-.91,1.36-1.52.27-.61.41-1.24.41-1.89,0-.57-.13-1.17-.38-1.79-.25-.62-.69-1.14-1.32-1.57-.63-.42-1.52-.64-2.66-.64h-6v8Z" style="fill:#2d2e87;"/><path d="M174.4,80.93v-21.49h7.28c1.65,0,2.94.27,3.88.81.94.54,1.61,1.23,2.01,2.09.4.85.6,1.75.6,2.68,0,1.04-.31,1.98-.92,2.82-.61.83-1.47,1.44-2.58,1.82.88.19,1.64.54,2.27,1.02s1.13,1.09,1.47,1.81c.35.72.52,1.53.52,2.42,0,.72-.12,1.43-.35,2.14-.23.71-.6,1.36-1.12,1.95-.52.59-1.21,1.06-2.08,1.41-.87.35-1.94.53-3.22.53h-7.77ZM176.55,68.8h4.59c1.63,0,2.85-.35,3.67-1.04.82-.7,1.23-1.61,1.23-2.75,0-.58-.11-1.15-.33-1.71-.22-.56-.63-1.02-1.24-1.37-.61-.36-1.49-.54-2.65-.54h-5.27v7.42ZM176.55,78.96h5.91c1.14,0,2.02-.19,2.65-.57.63-.38,1.07-.86,1.32-1.46.25-.59.38-1.21.38-1.86,0-.75-.15-1.45-.45-2.12-.3-.66-.83-1.2-1.6-1.6-.77-.4-1.86-.61-3.29-.61h-4.93v8.21Z" style="fill:#2d2e87;"/><path d="M202.41,81.3c-1.64,0-3.02-.32-4.15-.97-1.13-.65-2.04-1.51-2.73-2.59-.69-1.08-1.2-2.27-1.51-3.58-.32-1.31-.48-2.63-.48-3.96s.16-2.65.48-3.96c.32-1.31.82-2.51,1.51-3.58.69-1.08,1.6-1.94,2.73-2.6,1.13-.65,2.52-.98,4.15-.98s3.04.33,4.18.98c1.14.65,2.05,1.51,2.73,2.6.69,1.08,1.19,2.27,1.5,3.58.31,1.31.47,2.63.47,3.96s-.16,2.65-.47,3.96c-.31,1.31-.81,2.51-1.5,3.58-.68,1.08-1.6,1.94-2.73,2.59-1.14.65-2.53.97-4.18.97M202.41,79.26c1.24,0,2.28-.27,3.12-.82.84-.55,1.52-1.27,2.04-2.16.52-.9.89-1.88,1.12-2.94.23-1.06.35-2.11.35-3.15,0-1.13-.11-2.23-.35-3.31-.23-1.08-.6-2.05-1.12-2.92-.52-.87-1.2-1.56-2.04-2.08-.84-.52-1.89-.78-3.12-.78s-2.26.27-3.11.82c-.84.55-1.53,1.27-2.04,2.16-.52.9-.89,1.88-1.13,2.95s-.35,2.12-.35,3.15c0,1.13.12,2.23.35,3.31.24,1.08.61,2.05,1.13,2.92.52.87,1.2,1.56,2.04,2.07.84.52,1.88.78,3.11.78" style="fill:#2d2e87;"/><path d="M216.73,80.93v-21.49h8.11c1.67,0,2.98.29,3.94.87.96.58,1.64,1.32,2.04,2.23.4.91.61,1.86.61,2.84,0,.89-.18,1.75-.53,2.58-.35.83-.91,1.54-1.68,2.14-.77.6-1.77,1-3.01,1.21l4.73,9.63h-2.43l-4.58-9.5h-5.05v9.5h-2.15ZM218.88,69.43h6c1.1,0,1.96-.2,2.59-.6.63-.4,1.09-.91,1.36-1.52.27-.61.41-1.24.41-1.89,0-.57-.13-1.17-.38-1.79-.25-.62-.69-1.14-1.32-1.57-.63-.42-1.52-.64-2.66-.64h-6v8Z" style="fill:#2d2e87;"/><path d="M237.04,80.93v-21.49h2.16l10.01,16.14c.15.26.31.51.46.78.15.26.31.53.46.82-.01-.27-.02-.53-.03-.8-.01-.27-.02-.52-.02-.77v-16.17h2.15v21.49h-2.07l-10.13-16.18c-.13-.24-.28-.48-.43-.74-.15-.26-.31-.52-.46-.78.02.24.03.48.04.75,0,.26,0,.52,0,.78v16.18h-2.15Z" style="fill:#2d2e87;"/><path d="M239.04,30.95c-.39,0-.72-.14-1-.41-.28-.28-.41-.61-.41-1,0-.41.14-.75.41-1.03.28-.28.61-.41,1-.41.41,0,.75.14,1.02.41.27.28.41.62.41,1.03s-.14.72-.41,1c-.27.28-.61.41-1.02.41" style="fill:#2d2e87;"/><path d="M232.33,30.95c-.39,0-.72-.14-1.01-.41-.28-.28-.42-.61-.42-1,0-.41.14-.75.42-1.03.28-.28.62-.41,1.01-.41.41,0,.75.14,1.02.41.27.28.41.62.41,1.03s-.14.72-.41,1c-.27.28-.61.41-1.02.41" style="fill:#2d2e87;"/><path d="M88.14,53.99c-1.71,0-3.11-.33-4.21-.98s-1.9-1.59-2.43-2.82c-.52-1.23-.78-2.74-.78-4.51v-13.56h2.15v13.54c0,1.99.41,3.53,1.23,4.64.82,1.11,2.16,1.66,4.04,1.66,1.09,0,2.04-.21,2.83-.63.79-.42,1.4-1.09,1.83-2.01.42-.92.64-2.14.64-3.65v-13.54h2.15v13.56c0,1.41-.16,2.64-.48,3.68-.32,1.04-.8,1.9-1.43,2.59-.63.69-1.41,1.2-2.33,1.53-.93.33-1.99.5-3.2.5" style="fill:#2d2e87;"/><path d="M101.7,53.63v-21.49h2.16l10.01,16.14c.15.26.31.51.46.78.15.26.31.53.46.82-.01-.27-.02-.53-.03-.8-.01-.27-.02-.52-.02-.77v-16.17h2.15v21.49h-2.07l-10.13-16.18c-.13-.24-.28-.48-.43-.74-.15-.26-.31-.52-.46-.78.02.24.03.48.04.75,0,.26,0,.52,0,.78v16.18h-2.15Z" style="fill:#2d2e87;"/><rect x="123.27" y="32.13" width="2.15" height="21.49" style="fill:#2d2e87;"/><path d="M137.81,53.63l-7.35-21.49h2.3l5.47,16.34c.09.27.19.56.28.88.1.32.19.66.28,1.01.09-.35.18-.68.28-.99.09-.31.18-.61.28-.9l5.37-16.34h2.3l-7.34,21.49h-1.87Z" style="fill:#2d2e87;"/><polygon points="151.27 53.63 151.27 32.13 163.53 32.13 163.53 34.14 153.42 34.14 153.42 41.5 160.13 41.5 160.13 43.51 153.42 43.51 153.42 51.58 164.2 51.58 164.2 53.63 151.27 53.63" style="fill:#2d2e87;"/><path d="M168.72,53.63v-21.49h8.11c1.67,0,2.98.29,3.94.87.96.58,1.64,1.32,2.04,2.23.4.91.61,1.86.61,2.84,0,.89-.18,1.75-.53,2.58-.35.83-.91,1.54-1.68,2.14-.77.6-1.77,1-3.01,1.21l4.73,9.63h-2.43l-4.58-9.5h-5.05v9.5h-2.15ZM170.86,42.13h6c1.1,0,1.96-.2,2.59-.6.63-.4,1.09-.91,1.36-1.52.27-.61.41-1.24.41-1.89,0-.57-.13-1.17-.38-1.79-.25-.62-.69-1.14-1.32-1.57-.63-.42-1.52-.64-2.66-.64h-6v8Z" style="fill:#2d2e87;"/><path d="M194.35,53.99c-1.2,0-2.28-.21-3.25-.62-.97-.41-1.8-.98-2.48-1.69-.68-.71-1.19-1.51-1.51-2.39l2.07-.74c.46,1.01,1.15,1.83,2.06,2.46.91.62,1.97.94,3.18.94,1.36,0,2.45-.34,3.28-1.01.82-.68,1.24-1.66,1.24-2.95,0-.87-.23-1.61-.71-2.23-.47-.62-1.08-1.14-1.84-1.57-.76-.42-1.57-.8-2.43-1.11-.74-.28-1.47-.59-2.2-.93-.73-.34-1.4-.75-2-1.21-.6-.47-1.08-1.03-1.44-1.7-.36-.66-.54-1.45-.54-2.36s.25-1.8.74-2.57c.5-.77,1.22-1.39,2.16-1.85.94-.46,2.08-.69,3.42-.69,1.05,0,2,.16,2.83.48.83.32,1.52.76,2.07,1.32.55.56.94,1.21,1.17,1.93l-2.01.68c-.29-.71-.79-1.28-1.5-1.73-.71-.44-1.61-.67-2.71-.67-1.23,0-2.19.28-2.89.84-.7.56-1.05,1.32-1.05,2.28,0,.75.23,1.37.69,1.87s1.06.93,1.8,1.29c.74.36,1.53.7,2.36,1.03.73.28,1.46.6,2.2.97.74.37,1.42.82,2.03,1.34.61.53,1.11,1.16,1.49,1.9.38.74.57,1.63.57,2.66,0,1.29-.29,2.38-.88,3.28-.59.9-1.39,1.58-2.42,2.05-1.02.47-2.19.71-3.5.71" style="fill:#2d2e87;"/><rect x="206.48" y="32.13" width="2.15" height="21.49" style="fill:#2d2e87;"/><polygon points="219.27 53.63 219.27 34.2 213.31 34.2 213.31 32.13 227.39 32.13 227.39 34.2 221.42 34.2 221.42 53.63 219.27 53.63" style="fill:#2d2e87;"/><path d="M227.21,53.63l7.54-21.49h1.92l7.54,21.49h-2.23l-1.92-5.51h-8.67l-1.9,5.51h-2.27ZM232,46.23h7.42l-2.89-8.37c-.06-.18-.15-.44-.25-.76-.11-.32-.22-.65-.32-.99-.11-.34-.19-.61-.24-.83-.05.21-.13.49-.24.83-.11.34-.21.67-.32.99-.11.32-.19.58-.25.76l-2.9,8.37Z" style="fill:#2d2e87;"/><polygon points="250.1 53.63 250.1 34.2 244.14 34.2 244.14 32.13 258.22 32.13 258.22 34.2 252.25 34.2 252.25 53.63 250.1 53.63" style="fill:#2d2e87;"/><polygon points="52.37 24.24 62.45 32.13 62.45 72.09 52.37 40.01 52.37 24.25 52.37 24.24" style="fill:#64c2c8;"/><polygon points="45.64 45.26 58.03 73.27 34.91 53.65 34.91 8.58 45.64 .2 45.64 45.26" style="fill:#3ea8cb;"/><polygon points="28.18 58.9 54.79 76.51 17.45 67.29 17.45 32.62 28.18 24.24 28.18 58.91 28.18 58.9" style="fill:#0578be;"/><polygon points="10.72 72.04 10.72 72.55 53.6 80.93 -.01 80.93 -.01 56.67 10.72 48.29 10.72 72.04" style="fill:#2d2e87;"/></g></g></g></svg>