<svg width="208" height="404" viewBox="0 0 208 404" fill="none" xmlns="http://www.w3.org/2000/svg">
<g clip-path="url(#clip0_4989_72000)">
<path d="M104 323.12V403.83L155.78 363.48L104 323.13V323.12Z" fill="#23A9C9"/>
<path d="M104 403.83V484.54L155.78 444.19L104 403.84V403.83Z" fill="#0025AA"/>
<path d="M155.78 363.47V282.76L104 323.11L155.78 363.46V363.47Z" fill="#50D1D1"/>
<path d="M104 161.7V242.41L155.78 202.06L104 161.71V161.7Z" fill="#23A9C9"/>
<path d="M155.78 282.771V202.061L104 242.411L155.78 282.761V282.771Z" fill="#7E3FA8"/>
<path d="M155.78 202.06V121.35L104 161.7L155.78 202.05V202.06Z" fill="#50D1D1"/>
<path d="M103.78 80.71V0L52 40.35L103.78 80.7V80.71Z" fill="#50D1D1" fill-opacity="0.2"/>
<path d="M155.78 121.35V202.06L207.56 161.71L155.78 121.36V121.35Z" fill="#ACEA3D"/>
<path d="M155.78 202.06V282.77L207.56 242.42L155.78 202.07V202.06Z" fill="#23A9C9"/>
<path d="M207.55 161.7V81L155.77 121.35L207.55 161.7Z" fill="#0A75C4"/>
<path d="M155.74 282.771V363.48L207.52 323.13L155.74 282.78V282.771Z" fill="#23A9C9"/>
<path d="M155.74 363.47V444.18L207.52 403.83L155.74 363.48V363.47Z" fill="#0025AA"/>
<path d="M207.51 403.83V323.12L155.73 363.47L207.51 403.82V403.83Z" fill="#0A75C4"/>
<path d="M207.51 323.12V242.41L155.73 282.76L207.51 323.11V323.12Z" fill="#50D1D1"/>
<path d="M0 323.119V403.829L51.78 363.479L0 323.129V323.119Z" fill="#23A9C9"/>
<path d="M0 403.829V484.539L51.78 444.189L0 403.839V403.829Z" fill="#0025AA"/>
<path d="M51.78 282.77V202.06L0 242.41L51.78 282.76V282.77Z" fill="#0A75C4"/>
<path d="M51.78 202.06V282.77L103.56 242.42L51.78 202.07V202.06Z" fill="#23A9C9"/>
<path d="M51.7402 282.77V363.48L103.52 323.13L51.7402 282.78V282.77Z" fill="#23A9C9"/>
<path d="M51.7402 363.469V444.179L103.52 403.829L51.7402 363.479V363.469Z" fill="#0025AA"/>
<path d="M103.51 403.829V323.119L51.73 363.469L103.51 403.819V403.829Z" fill="#0A75C4"/>
<path d="M103.51 323.119V242.409L51.73 282.759L103.51 323.109V323.119Z" fill="#EF3A84"/>
</g>
<defs>
<clipPath id="clip0_4989_72000">
<rect width="208" height="404" fill="white"/>
</clipPath>
</defs>
</svg>
