<?xml version="1.0" encoding="UTF-8"?>
<svg id="Ebene_1" xmlns="http://www.w3.org/2000/svg" version="1.1" viewBox="0 0 208 405">
  <!-- Generator: Adobe Illustrator 29.3.1, SVG Export Plug-In . SVG Version: 2.1.0 Build 151)  -->
  <defs>
    <style>
      .st0 {
        opacity: .2;
      }

      .st0, .st1 {
        fill: #0025aa;
      }

      .st2, .st3 {
        fill: #c138a0;
      }

      .st4 {
        fill: #acea3d;
      }

      .st5, .st6 {
        fill: #23a9c9;
      }

      .st6 {
        opacity: .5;
      }

      .st7, .st8 {
        fill: #0a75c4;
      }

      .st3 {
        opacity: .5;
      }

      .st8 {
        opacity: .8;
      }

      .st9 {
        fill-opacity: .5;
      }

      .st9, .st10 {
        fill: #50d1d1;
      }

      .st11 {
        fill: #7e3fa8;
      }
    </style>
  </defs>
  <path class="st4" d="M208,80.8V0l-51.9,40.4,51.9,40.4h0Z"/>
  <path class="st10" d="M51.8,282.8v-80.8L0,242.4l51.9,40.4h0Z"/>
  <path class="st8" d="M156.1,40.4v80.8l51.9-40.4-51.9-40.4h0Z"/>
  <path class="st10" d="M156.1,121.3v80.8l51.9-40.4-51.9-40.4h0Z"/>
  <path class="st11" d="M208,323.3v-80.8l-51.9,40.4,51.9,40.4h0Z"/>
  <path class="st10" d="M156.1,202.1v80.8l51.9-40.4-51.9-40.4h0Z"/>
  <path class="st5" d="M156.1,282.9v-80.8l-51.9,40.4,51.9,40.4h0Z"/>
  <path class="st9" d="M52.1,41.1v80.8l51.9-40.4-51.9-40.4Z"/>
  <path class="st6" d="M104,323.2v-80.8l-51.9,40.4,51.9,40.4h0Z"/>
  <path class="st0" d="M156.1,121.3V40.4l-51.9,40.4,51.9,40.4h0Z"/>
  <path class="st7" d="M104.3,80.8v80.8s51.9-40.4,51.9-40.4l-51.9-40.4h0Z"/>
  <path class="st2" d="M104.3,161.7v80.8s51.9-40.4,51.9-40.4l-51.9-40.4h0Z"/>
  <path class="st1" d="M208,404.2v-80.8l-51.9,40.4,51.9,40.4h0Z"/>
  <path class="st5" d="M208,161.7v-80.8l-51.9,40.4,51.9,40.4h0Z"/>
  <path class="st3" d="M52.1,121.7v80.8s51.9-40.4,51.9-40.4l-51.9-40.4h0Z"/>
  <path class="st5" d="M156.1,202.5v-80.8l-51.9,40.4,51.9,40.4h0Z"/>
  <path class="st11" d="M104.3,242.4v-80.8l-51.9,40.4,51.9,40.4h0Z"/>
  <path class="st4" d="M51.8,404.2v-80.8L0,363.8l51.9,40.4h0Z"/>
  <path class="st5" d="M51.8,121.9V41.1L0,81.5l51.9,40.4h0Z"/>
</svg>